  0
SECTION
  2
HEADER
  9
$ACADVER
  1
AC1009
  0
ENDSEC
  0
SECTION
  2
ENTITIES
  0
POLYLINE
  8
VACUUM
 66
1
 39
0
 10
0.000000
 20
0.000000
 30
0.000000
 70
1
  0
VERTEX
  8
VACUUM
 39
0
 10
8.300000
 20
-7.000000
 30
0.000000
 70
0
 42
0
  0
VERTEX
  8
VACUUM
 39
0
 10
8.300000
 20
7.000000
 30
0.000000
 70
0
 42
0
  0
VERTEX
  8
VACUUM
 39
0
 10
8.300000
 20
7.000000
 30
0.000000
 70
0
 42
0
  0
VERTEX
  8
VACUUM
 39
0
 10
11.543396
 20
7.000000
 30
0.000000
 70
0
 42
0
  0
VERTEX
  8
VACUUM
 39
0
 10
11.543396
 20
7.000000
 30
0.000000
 70
0
 42
0.262192
  0
VERTEX
  8
VACUUM
 39
0
 10
0.000000
 20
13.500000
 30
0.000000
 70
0
 42
0.262192
  0
VERTEX
  8
VACUUM
 39
0
 10
-11.543396
 20
7.000000
 30
0.000000
 70
0
 42
0
  0
VERTEX
  8
VACUUM
 39
0
 10
-8.300000
 20
7.000000
 30
0.000000
 70
0
 42
0
  0
VERTEX
  8
VACUUM
 39
0
 10
-8.300000
 20
7.000000
 30
0.000000
 70
0
 42
0
  0
VERTEX
  8
VACUUM
 39
0
 10
-8.300000
 20
-7.000000
 30
0.000000
 70
0
 42
0
  0
VERTEX
  8
VACUUM
 39
0
 10
-8.300000
 20
-7.000000
 30
0.000000
 70
0
 42
0
  0
VERTEX
  8
VACUUM
 39
0
 10
-11.543396
 20
-7.000000
 30
0.000000
 70
0
 42
0
  0
VERTEX
  8
VACUUM
 39
0
 10
-11.543396
 20
-7.000000
 30
0.000000
 70
0
 42
0.262192
  0
VERTEX
  8
VACUUM
 39
0
 10
0.000000
 20
-13.500000
 30
0.000000
 70
0
 42
0.262192
  0
VERTEX
  8
VACUUM
 39
0
 10
11.543396
 20
-7.000000
 30
0.000000
 70
0
 42
0
  0
VERTEX
  8
VACUUM
 39
0
 10
8.300000
 20
-7.000000
 30
0.000000
 70
0
 42
0
  0
SEQEND
  8
VACUUM
  0
ENDSEC
  0
EOF
