  0
SECTION
  2
HEADER
  9
$ACADVER
  1
AC1009
  0
ENDSEC
  0
SECTION
  2
ENTITIES
  0
POLYLINE
  8
VACUUM
 66
1
 39
0
 10
0.000000
 20
0.000000
 30
0.000000
 70
1
  0
VERTEX
  8
VACUUM
 39
0
 10
7.000000
 20
11.543396
 30
0.000000
 70
0
 42
0
  0
VERTEX
  8
VACUUM
 39
0
 10
7.000000
 20
1.800000
 30
0.000000
 70
0
 42
0
  0
VERTEX
  8
VACUUM
 39
0
 10
7.000000
 20
1.800000
 30
0.000000
 70
0
 42
0
  0
VERTEX
  8
VACUUM
 39
0
 10
-7.000000
 20
1.800000
 30
0.000000
 70
0
 42
0
  0
VERTEX
  8
VACUUM
 39
0
 10
-7.000000
 20
1.800000
 30
0.000000
 70
0
 42
0
  0
VERTEX
  8
VACUUM
 39
0
 10
-7.000000
 20
11.543396
 30
0.000000
 70
0
 42
0
  0
VERTEX
  8
VACUUM
 39
0
 10
-7.000000
 20
11.543396
 30
0.000000
 70
0
 42
0.0551808
  0
VERTEX
  8
VACUUM
 39
0
 10
-9.355257
 20
9.732891
 30
0.000000
 70
0
 42
0.0551808
  0
VERTEX
  8
VACUUM
 39
0
 10
-11.257501
 20
7.451086
 30
0.000000
 70
0
 42
-0.123955
  0
VERTEX
  8
VACUUM
 39
0
 10
-11.621568
 20
7.119834
 30
0.000000
 70
0
 42
-0.123955
  0
VERTEX
  8
VACUUM
 39
0
 10
-12.099979
 20
7.000000
 30
0.000000
 70
0
 42
0
  0
VERTEX
  8
VACUUM
 39
0
 10
-40.000000
 20
7.000000
 30
0.000000
 70
0
 42
0
  0
VERTEX
  8
VACUUM
 39
0
 10
-40.000000
 20
7.000000
 30
0.000000
 70
0
 42
0
  0
VERTEX
  8
VACUUM
 39
0
 10
-40.000000
 20
-7.000000
 30
0.000000
 70
0
 42
0
  0
VERTEX
  8
VACUUM
 39
0
 10
-40.000000
 20
-7.000000
 30
0.000000
 70
0
 42
0
  0
VERTEX
  8
VACUUM
 39
0
 10
-12.099979
 20
-7.000000
 30
0.000000
 70
0
 42
0
  0
VERTEX
  8
VACUUM
 39
0
 10
-12.099979
 20
-7.000000
 30
0.000000
 70
0
 42
-0.123957
  0
VERTEX
  8
VACUUM
 39
0
 10
-11.621567
 20
-7.119832
 30
0.000000
 70
0
 42
-0.123957
  0
VERTEX
  8
VACUUM
 39
0
 10
-11.257501
 20
-7.451086
 30
0.000000
 70
0
 42
0.0551808
  0
VERTEX
  8
VACUUM
 39
0
 10
-9.355257
 20
-9.732891
 30
0.000000
 70
0
 42
0.0551808
  0
VERTEX
  8
VACUUM
 39
0
 10
-7.000000
 20
-11.543396
 30
0.000000
 70
0
 42
0
  0
VERTEX
  8
VACUUM
 39
0
 10
-7.000000
 20
-1.800000
 30
0.000000
 70
0
 42
0
  0
VERTEX
  8
VACUUM
 39
0
 10
-7.000000
 20
-1.800000
 30
0.000000
 70
0
 42
0
  0
VERTEX
  8
VACUUM
 39
0
 10
7.000000
 20
-1.800000
 30
0.000000
 70
0
 42
0
  0
VERTEX
  8
VACUUM
 39
0
 10
7.000000
 20
-1.800000
 30
0.000000
 70
0
 42
0
  0
VERTEX
  8
VACUUM
 39
0
 10
7.000000
 20
-11.543396
 30
0.000000
 70
0
 42
0
  0
VERTEX
  8
VACUUM
 39
0
 10
7.000000
 20
-11.543396
 30
0.000000
 70
0
 42
0.0551808
  0
VERTEX
  8
VACUUM
 39
0
 10
9.355257
 20
-9.732891
 30
0.000000
 70
0
 42
0.0551808
  0
VERTEX
  8
VACUUM
 39
0
 10
11.257501
 20
-7.451086
 30
0.000000
 70
0
 42
-0.123955
  0
VERTEX
  8
VACUUM
 39
0
 10
11.621568
 20
-7.119834
 30
0.000000
 70
0
 42
-0.123955
  0
VERTEX
  8
VACUUM
 39
0
 10
12.099979
 20
-7.000000
 30
0.000000
 70
0
 42
0
  0
VERTEX
  8
VACUUM
 39
0
 10
40.000000
 20
-7.000000
 30
0.000000
 70
0
 42
0
  0
VERTEX
  8
VACUUM
 39
0
 10
40.000000
 20
-7.000000
 30
0.000000
 70
0
 42
0
  0
VERTEX
  8
VACUUM
 39
0
 10
40.000000
 20
7.000000
 30
0.000000
 70
0
 42
0
  0
VERTEX
  8
VACUUM
 39
0
 10
40.000000
 20
7.000000
 30
0.000000
 70
0
 42
0
  0
VERTEX
  8
VACUUM
 39
0
 10
12.099979
 20
7.000000
 30
0.000000
 70
0
 42
0
  0
VERTEX
  8
VACUUM
 39
0
 10
12.099979
 20
7.000000
 30
0.000000
 70
0
 42
-0.123957
  0
VERTEX
  8
VACUUM
 39
0
 10
11.621567
 20
7.119832
 30
0.000000
 70
0
 42
-0.123957
  0
VERTEX
  8
VACUUM
 39
0
 10
11.257501
 20
7.451086
 30
0.000000
 70
0
 42
0.0551808
  0
VERTEX
  8
VACUUM
 39
0
 10
9.355257
 20
9.732891
 30
0.000000
 70
0
 42
0.0551808
  0
SEQEND
  8
VACUUM
  0
ENDSEC
  0
EOF
