  0
SECTION
  2
HEADER
  9
$ACADVER
  1
AC1009
  0
ENDSEC
  0
SECTION
  2
ENTITIES
  0
POLYLINE
  8
VACUUM
 66
1
 39
0
 10
0.000000
 20
0.000000
 30
0.000000
 70
1
  0
VERTEX
  8
VACUUM
 39
0
 10
13.000000
 20
25.000000
 30
0.000000
 70
0
 42
0.414214
  0
VERTEX
  8
VACUUM
 39
0
 10
-12.000000
 20
0.000000
 30
0.000000
 70
0
 42
0.414214
  0
VERTEX
  8
VACUUM
 39
0
 10
13.000000
 20
-25.000000
 30
0.000000
 70
0
 42
0
  0
VERTEX
  8
VACUUM
 39
0
 10
67.000000
 20
-25.000000
 30
0.000000
 70
0
 42
0
  0
VERTEX
  8
VACUUM
 39
0
 10
67.000000
 20
-25.000000
 30
0.000000
 70
0
 42
0.414214
  0
VERTEX
  8
VACUUM
 39
0
 10
92.000000
 20
-0.000000
 30
0.000000
 70
0
 42
0.414214
  0
VERTEX
  8
VACUUM
 39
0
 10
67.000000
 20
25.000000
 30
0.000000
 70
0
 42
0
  0
VERTEX
  8
VACUUM
 39
0
 10
13.000000
 20
25.000000
 30
0.000000
 70
0
 42
0
  0
SEQEND
  8
VACUUM
  0
ENDSEC
  0
EOF
