  0
SECTION
  2
HEADER
  9
$ACADVER
  1
AC1009
  0
ENDSEC
  0
SECTION
  2
ENTITIES
  0
POLYLINE
  8
VACUUM
 66
1
 39
0
 10
0.000000
 20
0.000000
 30
0.000000
 70
1
  0
VERTEX
  8
VACUUM
 39
0
 10
-27.000000
 20
-1.500000
 30
0.000000
 70
0
 42
0
  0
VERTEX
  8
VACUUM
 39
0
 10
27.000000
 20
-1.500000
 30
0.000000
 70
0
 42
0
  0
VERTEX
  8
VACUUM
 39
0
 10
27.000000
 20
-1.500000
 30
0.000000
 70
0
 42
0.414214
  0
VERTEX
  8
VACUUM
 39
0
 10
52.000000
 20
23.500000
 30
0.000000
 70
0
 42
0.414214
  0
VERTEX
  8
VACUUM
 39
0
 10
27.000000
 20
48.500000
 30
0.000000
 70
0
 42
0
  0
VERTEX
  8
VACUUM
 39
0
 10
-27.000000
 20
48.500000
 30
0.000000
 70
0
 42
0
  0
VERTEX
  8
VACUUM
 39
0
 10
-27.000000
 20
48.500000
 30
0.000000
 70
0
 42
0.414214
  0
VERTEX
  8
VACUUM
 39
0
 10
-52.000000
 20
23.500000
 30
0.000000
 70
0
 42
0.414214
  0
SEQEND
  8
VACUUM
  0
ENDSEC
  0
EOF
